<svg width="230" height="216" viewBox="0 0 230 216" fill="none" xmlns="http://www.w3.org/2000/svg">
<path d="M0 125C0 111.193 11.1929 100 25 100V100C38.8071 100 50 111.193 50 125V150H0V125Z" fill="black"/>
<path d="M60 91C60 77.1929 71.1929 66 85 66V66C98.8071 66 110 77.1929 110 91V146H60V91Z" fill="black"/>
<path d="M120 55C120 41.1929 131.193 30 145 30V30C158.807 30 170 41.1929 170 55V100H120V55Z" fill="black"/>
<path d="M0 150H50V175C50 188.807 38.8071 200 25 200V200C11.1929 200 0 188.807 0 175V150Z" fill="black"/>
<path d="M180 25C180 11.1929 191.193 0 205 0V0C218.807 0 230 11.1929 230 25V100H180V25Z" fill="black"/>
<path d="M180 100H230V125C230 138.807 218.807 150 205 150V150C191.193 150 180 138.807 180 125V100Z" fill="black"/>
<path d="M60 146H110V191C110 204.807 98.8071 216 85 216V216C71.1929 216 60 204.807 60 191V146Z" fill="black"/>
<path d="M120 100H170V145C170 158.807 158.807 170 145 170V170C131.193 170 120 158.807 120 145V100Z" fill="black"/>
</svg>
